<mxfile host="app.diagrams.net" modified="2024-05-27T11:57:42.566Z" agent="Mozilla/5.0 (Windows NT 10.0; Win64; x64) AppleWebKit/537.36 (KHTML, like Gecko) Chrome/121.0.0.0 Safari/537.36" etag="RquQ3Hb1XBhAc3JfKkpl" version="24.4.8" type="device">
  <diagram name="Página-1" id="E9BFk1N6qc7OBSXMc22s">
    <mxGraphModel dx="2514" dy="920" grid="1" gridSize="10" guides="1" tooltips="1" connect="1" arrows="1" fold="1" page="1" pageScale="1" pageWidth="827" pageHeight="1169" math="0" shadow="0">
      <root>
        <mxCell id="0" />
        <mxCell id="1" parent="0" />
        <mxCell id="lmfoOqMIlEAS_l2tvJhW-2" style="edgeStyle=orthogonalEdgeStyle;rounded=0;orthogonalLoop=1;jettySize=auto;html=1;" parent="1" source="lmfoOqMIlEAS_l2tvJhW-1" target="lmfoOqMIlEAS_l2tvJhW-3" edge="1">
          <mxGeometry relative="1" as="geometry">
            <mxPoint x="30" y="210" as="targetPoint" />
          </mxGeometry>
        </mxCell>
        <mxCell id="lmfoOqMIlEAS_l2tvJhW-1" value="INICIO" style="ellipse;whiteSpace=wrap;html=1;" parent="1" vertex="1">
          <mxGeometry x="-30" y="20" width="120" height="80" as="geometry" />
        </mxCell>
        <mxCell id="lmfoOqMIlEAS_l2tvJhW-4" value="SIM" style="edgeStyle=orthogonalEdgeStyle;rounded=0;orthogonalLoop=1;jettySize=auto;html=1;" parent="1" source="lmfoOqMIlEAS_l2tvJhW-3" target="lmfoOqMIlEAS_l2tvJhW-6" edge="1">
          <mxGeometry relative="1" as="geometry">
            <mxPoint x="30" y="300" as="targetPoint" />
          </mxGeometry>
        </mxCell>
        <mxCell id="lmfoOqMIlEAS_l2tvJhW-5" value="NÃO" style="edgeStyle=orthogonalEdgeStyle;rounded=0;orthogonalLoop=1;jettySize=auto;html=1;" parent="1" source="lmfoOqMIlEAS_l2tvJhW-3" target="lmfoOqMIlEAS_l2tvJhW-7" edge="1">
          <mxGeometry relative="1" as="geometry">
            <mxPoint x="150" y="200" as="targetPoint" />
          </mxGeometry>
        </mxCell>
        <mxCell id="lmfoOqMIlEAS_l2tvJhW-3" value="TEM CADASTRO" style="rhombus;whiteSpace=wrap;html=1;" parent="1" vertex="1">
          <mxGeometry x="-10" y="160" width="80" height="80" as="geometry" />
        </mxCell>
        <mxCell id="lmfoOqMIlEAS_l2tvJhW-15" style="edgeStyle=orthogonalEdgeStyle;rounded=0;orthogonalLoop=1;jettySize=auto;html=1;" parent="1" source="lmfoOqMIlEAS_l2tvJhW-6" target="lmfoOqMIlEAS_l2tvJhW-14" edge="1">
          <mxGeometry relative="1" as="geometry" />
        </mxCell>
        <mxCell id="lmfoOqMIlEAS_l2tvJhW-6" value="LOGIN" style="rounded=0;whiteSpace=wrap;html=1;" parent="1" vertex="1">
          <mxGeometry x="-30" y="350" width="120" height="60" as="geometry" />
        </mxCell>
        <mxCell id="lmfoOqMIlEAS_l2tvJhW-8" style="edgeStyle=orthogonalEdgeStyle;rounded=0;orthogonalLoop=1;jettySize=auto;html=1;" parent="1" source="lmfoOqMIlEAS_l2tvJhW-7" edge="1">
          <mxGeometry relative="1" as="geometry">
            <mxPoint x="260" y="290" as="targetPoint" />
          </mxGeometry>
        </mxCell>
        <mxCell id="lmfoOqMIlEAS_l2tvJhW-7" value="FAZER CADASTRO" style="rounded=0;whiteSpace=wrap;html=1;" parent="1" vertex="1">
          <mxGeometry x="200" y="170" width="120" height="60" as="geometry" />
        </mxCell>
        <mxCell id="tkBII9wovBFp0UcmzLhQ-7" value="SIM" style="edgeStyle=orthogonalEdgeStyle;rounded=0;orthogonalLoop=1;jettySize=auto;html=1;entryX=0;entryY=0.5;entryDx=0;entryDy=0;" edge="1" parent="1" source="lmfoOqMIlEAS_l2tvJhW-14" target="lmfoOqMIlEAS_l2tvJhW-21">
          <mxGeometry relative="1" as="geometry">
            <mxPoint x="150" y="620" as="targetPoint" />
          </mxGeometry>
        </mxCell>
        <mxCell id="tkBII9wovBFp0UcmzLhQ-9" style="edgeStyle=orthogonalEdgeStyle;rounded=0;orthogonalLoop=1;jettySize=auto;html=1;entryX=1;entryY=0;entryDx=0;entryDy=0;" edge="1" parent="1" source="lmfoOqMIlEAS_l2tvJhW-14" target="lmfoOqMIlEAS_l2tvJhW-1">
          <mxGeometry relative="1" as="geometry">
            <mxPoint x="30" y="841.1764705882352" as="targetPoint" />
            <Array as="points">
              <mxPoint x="10" y="841" />
              <mxPoint x="550" y="841" />
              <mxPoint x="550" y="32" />
            </Array>
          </mxGeometry>
        </mxCell>
        <mxCell id="tkBII9wovBFp0UcmzLhQ-11" value="NÃO" style="edgeLabel;html=1;align=center;verticalAlign=middle;resizable=0;points=[];" vertex="1" connectable="0" parent="tkBII9wovBFp0UcmzLhQ-9">
          <mxGeometry x="-0.3595" y="1" relative="1" as="geometry">
            <mxPoint as="offset" />
          </mxGeometry>
        </mxCell>
        <mxCell id="lmfoOqMIlEAS_l2tvJhW-14" value="DADOS VALIDOS" style="rhombus;whiteSpace=wrap;html=1;" parent="1" vertex="1">
          <mxGeometry x="-10" y="505" width="80" height="80" as="geometry" />
        </mxCell>
        <mxCell id="lmfoOqMIlEAS_l2tvJhW-21" value="FIM" style="ellipse;whiteSpace=wrap;html=1;" parent="1" vertex="1">
          <mxGeometry x="250" y="540" width="120" height="80" as="geometry" />
        </mxCell>
        <mxCell id="tkBII9wovBFp0UcmzLhQ-5" style="edgeStyle=orthogonalEdgeStyle;rounded=0;orthogonalLoop=1;jettySize=auto;html=1;entryX=0.5;entryY=0;entryDx=0;entryDy=0;" edge="1" parent="1" source="tkBII9wovBFp0UcmzLhQ-1" target="tkBII9wovBFp0UcmzLhQ-4">
          <mxGeometry relative="1" as="geometry" />
        </mxCell>
        <mxCell id="tkBII9wovBFp0UcmzLhQ-1" value="COLOCAR DADOS EMAIL,CPF,MEI,E CRIAR UMA SENHA" style="rounded=0;whiteSpace=wrap;html=1;" vertex="1" parent="1">
          <mxGeometry x="200" y="290" width="120" height="60" as="geometry" />
        </mxCell>
        <mxCell id="tkBII9wovBFp0UcmzLhQ-6" value="SIM" style="edgeStyle=orthogonalEdgeStyle;rounded=0;orthogonalLoop=1;jettySize=auto;html=1;entryX=1;entryY=0.5;entryDx=0;entryDy=0;" edge="1" parent="1" source="tkBII9wovBFp0UcmzLhQ-4" target="lmfoOqMIlEAS_l2tvJhW-1">
          <mxGeometry relative="1" as="geometry">
            <Array as="points">
              <mxPoint x="400" y="430" />
              <mxPoint x="400" y="60" />
            </Array>
          </mxGeometry>
        </mxCell>
        <mxCell id="tkBII9wovBFp0UcmzLhQ-4" value="CADASTRO CONCLUIDO COM SUCESSO" style="rounded=0;whiteSpace=wrap;html=1;" vertex="1" parent="1">
          <mxGeometry x="200" y="400" width="120" height="60" as="geometry" />
        </mxCell>
      </root>
    </mxGraphModel>
  </diagram>
</mxfile>
